<svg width="631" height="597" viewBox="0 0 631 597" fill="none" xmlns="http://www.w3.org/2000/svg">
<path d="M111.624 527.999C225.456 591.567 410.036 591.567 523.881 527.999C637.727 464.43 637.727 361.364 523.881 297.807C410.036 234.251 225.456 234.239 111.611 297.807C-2.23367 361.376 -2.22106 464.466 111.624 527.999Z" fill="#F5F5F5"/>
<path d="M493.619 514.674C524.418 514.674 549.386 501.037 549.386 484.215C549.386 467.393 524.418 453.756 493.619 453.756C462.819 453.756 437.851 467.393 437.851 484.215C437.851 501.037 462.819 514.674 493.619 514.674Z" fill="#E0E0E0"/>
<path d="M458.636 92.1051L468.316 97.3945C468.263 96.9984 468.233 96.5998 468.227 96.2005V93.526C468.227 88.75 471.736 86.8873 476.052 89.2515C477.911 90.3319 479.503 91.7774 480.721 93.4902C481.428 87.5202 486.35 85.3471 492.332 88.6067C498.793 92.1887 504.03 100.726 504.03 107.794V111.758C504.073 113.341 503.736 114.913 503.046 116.355L511.072 120.749C512.343 121.533 513.399 122.591 514.154 123.837C514.909 125.082 515.34 126.479 515.414 127.913C515.414 130.528 513.47 131.591 511.072 130.301L458.636 101.645C457.365 100.861 456.309 99.8028 455.554 98.5575C454.8 97.3121 454.368 95.9151 454.295 94.4812C454.32 91.8544 456.238 90.744 458.636 92.1051Z" fill="#EBEBEB"/>
<path d="M417.217 118.779L424.524 122.767C424.485 122.466 424.464 122.163 424.461 121.86V119.854C424.461 116.272 427.111 114.851 430.367 116.63C431.772 117.442 432.974 118.534 433.888 119.83C434.418 115.352 438.129 113.681 442.647 116.14C445.219 117.728 447.359 119.866 448.894 122.383C450.429 124.899 451.315 127.722 451.481 130.624V133.62C451.514 134.813 451.26 135.998 450.736 137.083L456.794 140.402C457.748 140.989 458.542 141.78 459.112 142.711C459.682 143.643 460.012 144.689 460.075 145.763C460.075 147.746 458.611 148.545 456.794 147.554L417.217 125.931C416.266 125.347 415.474 124.56 414.904 123.633C414.334 122.706 414.003 121.665 413.936 120.594C413.936 118.588 415.413 117.788 417.217 118.779Z" fill="#EBEBEB"/>
<path d="M93.2365 344.612C92.5172 344.982 79.3545 348.529 74.4327 342.415C69.5109 336.302 77.6508 326.786 73.0698 323.311C68.4887 319.837 55.6415 323.311 52.5496 315.944C49.4577 308.577 58.6199 305.377 53.4709 297.939C50.2276 293.258 42.2517 290.631 41.545 286.297C40.384 279.062 53.0544 275.73 63.9076 282.572C74.7608 289.414 81.3106 286.273 84.7559 285.808C88.2011 285.342 95.6091 286.369 95.3693 297.748C95.1295 309.127 93.2365 344.612 93.2365 344.612Z" fill="#3391DB"/>
<path d="M94.1074 328.35C93.9362 328.352 93.7702 328.294 93.6402 328.189C93.5102 328.084 93.4251 327.937 93.4007 327.777C89.6147 306.094 62.9738 288.435 49.1171 284.65C48.933 284.6 48.7771 284.484 48.6836 284.326C48.5901 284.169 48.5667 283.982 48.6186 283.808C48.6705 283.634 48.7934 283.486 48.9602 283.398C49.1271 283.309 49.3242 283.287 49.5083 283.336C63.6806 287.217 90.9398 305.306 94.8141 327.514C94.8433 327.691 94.7973 327.872 94.6862 328.018C94.5752 328.163 94.408 328.261 94.221 328.29L94.1074 328.35Z" fill="white"/>
<path d="M62.6835 310.201C62.5247 310.206 62.3687 310.161 62.2407 310.072C62.1126 309.983 62.0199 309.856 61.9777 309.711C61.9354 309.566 61.9459 309.412 62.0076 309.273C62.0692 309.135 62.1784 309.02 62.3175 308.947C62.7466 308.697 72.994 302.978 83.1026 305.676C83.2859 305.729 83.4406 305.846 83.5346 306.004C83.6286 306.162 83.6547 306.348 83.6074 306.524C83.5546 306.696 83.4322 306.841 83.2668 306.928C83.1015 307.015 82.9064 307.037 82.7241 306.989C73.196 304.47 63.0999 310.058 63.0999 310.118C62.9727 310.183 62.8279 310.212 62.6835 310.201Z" fill="white"/>
<path d="M98.3477 352.946C98.4825 354.683 99.0474 356.365 99.9968 357.856C100.946 359.347 102.253 360.606 103.812 361.531L256.931 445.111C258.624 445.924 260.496 446.348 262.395 446.348C264.294 446.348 266.166 445.924 267.86 445.111L477.352 330.666C479.003 329.842 480.385 328.607 481.349 327.094C482.313 325.581 482.823 323.848 482.823 322.081C482.823 320.315 482.313 318.582 481.349 317.069C480.385 315.556 479.003 314.321 477.352 313.497L324.246 229.917C322.552 229.104 320.68 228.68 318.781 228.68C316.882 228.68 315.01 229.104 313.317 229.917L103.825 344.361C102.263 345.285 100.954 346.543 100.002 348.035C99.0508 349.526 98.4839 351.209 98.3477 352.946Z" fill="#37474F"/>
<path d="M262.395 435.213V446.401C260.496 446.45 258.615 446.039 256.93 445.207L103.812 361.627C102.211 360.829 100.863 359.643 99.9036 358.191C98.9447 356.74 98.4098 355.073 98.3534 353.362C98.2969 351.651 98.721 349.956 99.5824 348.451C100.444 346.945 101.712 345.682 103.257 344.791C100.808 346.451 100.998 348.887 103.812 350.427L256.93 434.007C258.613 434.843 260.494 435.259 262.395 435.213Z" fill="#263238"/>
<path d="M93.2238 344.541C91.7003 343.565 90.442 342.263 89.5516 340.74C88.6612 339.217 88.1638 337.516 88.1001 335.777V162.897C88.2037 161.104 88.7524 159.358 89.7018 157.802C90.6511 156.247 91.9745 154.924 93.5646 153.942L303.057 39.5094C304.682 38.6947 306.487 38.253 308.327 38.2198C310.166 38.1866 311.988 38.5629 313.645 39.3184C315.169 40.2965 316.429 41.6009 317.321 43.1256C318.214 44.6503 318.714 46.3525 318.781 48.0943V220.962C318.679 222.756 318.132 224.502 317.182 226.058C316.233 227.614 314.908 228.936 313.317 229.917L103.825 344.362C102.197 345.179 100.389 345.621 98.5469 345.653C96.7047 345.684 94.8809 345.303 93.2238 344.541Z" fill="#455A64"/>
<path d="M103.168 344.672C101.602 345.34 99.899 345.675 98.1807 345.652C96.4623 345.629 94.7702 345.25 93.2238 344.541C91.7025 343.563 90.4458 342.26 89.5557 340.738C88.6655 339.215 88.1669 337.515 88.1001 335.777V162.897C88.1621 161.1 88.7142 159.347 89.7028 157.811L99.9503 163.399C98.9689 164.938 98.4174 166.689 98.3475 168.485V341.376C98.3475 344.433 100.455 345.806 103.168 344.672Z" fill="#263238"/>
<path d="M98.3477 168.497V341.376C98.3477 344.672 100.796 346.009 103.812 344.361L313.304 229.917C314.896 228.936 316.22 227.614 317.17 226.058C318.119 224.502 318.667 222.756 318.769 220.962V48.0943C318.769 44.7988 316.32 43.4615 313.304 45.1093L103.812 159.542C102.223 160.525 100.9 161.847 99.9506 163.403C99.0014 164.959 98.4522 166.704 98.3477 168.497Z" fill="#37474F"/>
<path d="M103.812 350.331L256.931 433.911C258.624 434.724 260.496 435.148 262.395 435.148C264.294 435.148 266.166 434.724 267.859 433.911L477.351 319.467C480.368 317.819 480.368 315.144 477.351 313.497L324.246 229.917C322.552 229.104 320.68 228.68 318.781 228.68C316.882 228.68 315.01 229.104 313.317 229.917L103.825 344.361C100.796 346.009 100.796 348.648 103.812 350.331Z" fill="#455A64"/>
<path d="M106.752 169.142L308.672 58.8402C310.49 57.8492 311.954 58.6492 311.954 60.6312V210.275C311.893 211.352 311.564 212.4 310.994 213.334C310.424 214.268 309.628 215.061 308.672 215.648L106.752 325.962C104.935 326.953 103.471 326.153 103.471 324.171V174.515C103.532 173.438 103.861 172.39 104.431 171.456C105.001 170.522 105.797 169.729 106.752 169.142Z" fill="white"/>
<path opacity="0.6" d="M106.752 169.142L308.672 58.8402C310.49 57.8492 311.954 58.6492 311.954 60.6312V210.275C311.893 211.352 311.564 212.4 310.994 213.334C310.424 214.268 309.628 215.061 308.672 215.648L106.752 325.962C104.935 326.953 103.471 326.153 103.471 324.171V174.515C103.532 173.438 103.861 172.39 104.431 171.456C105.001 170.522 105.797 169.729 106.752 169.142Z" fill="#3391DB"/>
<path d="M207.309 159.674C212.685 156.736 217.051 159.124 217.051 164.999C216.866 168.195 215.888 171.305 214.195 174.076C212.502 176.848 210.143 179.203 207.309 180.951C201.933 183.888 197.579 181.512 197.579 175.637C197.76 172.44 198.736 169.329 200.426 166.555C202.117 163.781 204.475 161.424 207.309 159.674Z" fill="#F0F0F0"/>
<path d="M226.504 191.1C226.504 181.452 219.335 177.166 210.501 181.989L204.987 185.07C196.153 189.846 188.984 201.631 188.984 211.338V213.941L226.504 193.452V191.1Z" fill="#F0F0F0"/>
<path d="M245.472 195.816C245.118 195.04 244.21 194.849 243.187 195.398L177.664 231.218C176.961 231.656 176.375 232.244 175.954 232.934C175.534 233.625 175.289 234.398 175.241 235.194V242.477C175.241 243.671 176.024 244.328 177.084 244.054L177.26 243.994C177.398 243.941 177.533 243.882 177.664 243.815L243.187 207.995C243.894 207.559 244.481 206.972 244.902 206.281C245.323 205.59 245.566 204.815 245.61 204.019V196.771C245.622 196.448 245.575 196.124 245.472 195.816Z" fill="#F0F0F0"/>
<path d="M183.583 232.126C184.845 231.421 185.892 231.994 185.892 233.379C185.852 234.136 185.621 234.874 185.219 235.53C184.818 236.186 184.257 236.742 183.583 237.152C182.321 237.845 181.286 237.284 181.286 235.887C181.327 235.133 181.557 234.399 181.956 233.745C182.356 233.091 182.913 232.536 183.583 232.126Z" fill="#3391DB"/>
<path d="M191.205 227.958C192.467 227.266 193.502 227.827 193.502 229.224C193.461 229.978 193.231 230.712 192.832 231.366C192.433 232.02 191.875 232.575 191.205 232.985C189.943 233.69 188.896 233.117 188.896 231.791C188.927 231.024 189.153 230.275 189.555 229.607C189.957 228.94 190.523 228.375 191.205 227.958Z" fill="#3391DB"/>
<path d="M198.815 223.803C200.077 223.111 201.112 223.672 201.112 225.057C201.073 225.813 200.844 226.55 200.445 227.206C200.045 227.862 199.487 228.418 198.815 228.83C197.553 229.523 196.506 228.961 196.506 227.576C196.547 226.819 196.777 226.082 197.179 225.426C197.581 224.77 198.141 224.214 198.815 223.803Z" fill="#3391DB"/>
<path d="M206.425 219.696C207.687 218.992 208.735 219.565 208.735 220.89C208.694 221.647 208.463 222.384 208.062 223.04C207.66 223.696 207.099 224.253 206.425 224.663C205.163 225.356 204.128 224.794 204.128 223.469C204.168 222.713 204.397 221.976 204.796 221.32C205.195 220.664 205.754 220.108 206.425 219.696Z" fill="#3391DB"/>
<path d="M214.035 215.481C215.297 214.789 216.345 215.35 216.345 216.747C216.299 217.503 216.066 218.238 215.665 218.894C215.264 219.549 214.705 220.106 214.035 220.52C212.773 221.212 211.738 220.651 211.738 219.254C211.783 218.499 212.014 217.765 212.412 217.109C212.811 216.454 213.367 215.896 214.035 215.481Z" fill="#3391DB"/>
<path d="M221.658 211.338C222.92 210.645 223.954 211.207 223.954 212.532C223.915 213.288 223.686 214.025 223.287 214.681C222.888 215.337 222.329 215.893 221.658 216.305C220.396 216.998 219.348 216.436 219.348 215.111C219.389 214.354 219.62 213.617 220.021 212.961C220.423 212.304 220.984 211.748 221.658 211.338Z" fill="#3391DB"/>
<path d="M229.268 207.171C230.53 206.478 231.564 207.04 231.564 208.425C231.525 209.181 231.296 209.917 230.897 210.573C230.497 211.229 229.939 211.786 229.268 212.198C228.006 212.89 226.971 212.329 226.971 210.944C227.01 210.188 227.239 209.451 227.638 208.795C228.038 208.139 228.596 207.583 229.268 207.171Z" fill="#3391DB"/>
<path d="M236.877 202.98C238.139 202.287 239.187 202.849 239.187 204.246C239.141 205.002 238.908 205.737 238.507 206.392C238.106 207.048 237.548 207.605 236.877 208.019C235.615 208.711 234.581 208.15 234.581 206.753C234.627 205.998 234.859 205.264 235.257 204.609C235.656 203.955 236.211 203.397 236.877 202.98Z" fill="#3391DB"/>
<path d="M121.581 345.854L316.043 239.588C316.889 239.182 317.825 238.97 318.775 238.97C319.724 238.97 320.66 239.182 321.507 239.588L331.452 245.021C331.781 245.127 332.068 245.327 332.27 245.595C332.473 245.863 332.582 246.184 332.582 246.513C332.582 246.843 332.473 247.164 332.27 247.431C332.068 247.699 331.781 247.9 331.452 248.006L136.965 354.26C136.118 354.666 135.182 354.877 134.233 354.877C133.283 354.877 132.347 354.666 131.5 354.26L121.581 348.839C121.251 348.733 120.965 348.532 120.762 348.265C120.559 347.997 120.45 347.676 120.45 347.346C120.45 347.017 120.559 346.696 120.762 346.428C120.965 346.161 121.251 345.96 121.581 345.854Z" fill="#37474F"/>
<path d="M147.212 359.86L341.674 253.594C342.521 253.188 343.457 252.976 344.406 252.976C345.355 252.976 346.291 253.188 347.138 253.594L408.32 287.026C408.65 287.131 408.936 287.332 409.139 287.6C409.341 287.868 409.451 288.189 409.451 288.518C409.451 288.847 409.341 289.169 409.139 289.436C408.936 289.704 408.65 289.905 408.32 290.011L214.086 396.109C213.236 396.513 212.298 396.723 211.347 396.723C210.396 396.723 209.458 396.513 208.608 396.109L147.225 362.821C146.898 362.717 146.613 362.518 146.411 362.254C146.209 361.989 146.1 361.671 146.098 361.344C146.097 361.018 146.204 360.699 146.403 360.433C146.603 360.167 146.886 359.966 147.212 359.86Z" fill="#263238"/>
<path d="M321.532 301.425L327.628 298.094C327.88 297.951 327.868 297.712 327.628 297.569L320.548 293.724C320.398 293.651 320.231 293.612 320.062 293.612C319.893 293.612 319.726 293.651 319.576 293.724L313.481 297.055C313.228 297.187 313.241 297.425 313.481 297.581L320.523 301.425C320.678 301.505 320.851 301.546 321.028 301.546C321.204 301.546 321.377 301.505 321.532 301.425ZM309.518 288.208L303.435 291.527C303.17 291.67 303.183 291.909 303.435 292.064L310.477 295.909C310.628 295.98 310.795 296.016 310.963 296.016C311.132 296.016 311.298 295.98 311.449 295.909L317.544 292.578C317.797 292.434 317.784 292.196 317.544 292.052L310.452 288.232C310.309 288.16 310.15 288.121 309.988 288.117C309.826 288.113 309.665 288.144 309.518 288.208ZM289.844 298.954L279.546 304.577C279.281 304.721 279.306 304.96 279.546 305.115L286.575 308.959C286.726 309.03 286.892 309.067 287.061 309.067C287.229 309.067 287.396 309.03 287.547 308.959L297.857 303.336C298.11 303.192 298.097 302.954 297.857 302.81L290.815 298.954C290.664 298.883 290.498 298.846 290.329 298.846C290.161 298.846 289.995 298.883 289.844 298.954ZM300.621 293.067L294.526 296.399C294.273 296.53 294.286 296.769 294.526 296.924L301.618 300.769C301.769 300.839 301.935 300.876 302.104 300.876C302.272 300.876 302.439 300.839 302.59 300.769L308.673 297.437C308.938 297.294 308.925 297.055 308.673 296.912L301.618 293.091C301.467 293.01 301.296 292.966 301.123 292.961C300.949 292.957 300.776 292.994 300.621 293.067ZM276.731 306.118L270.648 309.437C270.383 309.58 270.396 309.819 270.648 309.974L277.69 313.819C277.841 313.892 278.007 313.931 278.176 313.931C278.345 313.931 278.512 313.892 278.662 313.819L284.758 310.5C285.01 310.356 284.997 310.118 284.758 309.962L277.716 306.118C277.563 306.045 277.394 306.007 277.224 306.007C277.053 306.007 276.884 306.045 276.731 306.118ZM267.834 310.977L261.751 314.297C261.486 314.44 261.499 314.679 261.751 314.834L268.806 318.679C268.957 318.749 269.123 318.786 269.292 318.786C269.46 318.786 269.627 318.749 269.778 318.679L275.873 315.347C276.126 315.204 276.113 314.965 275.873 314.822L268.806 311.001C268.658 310.924 268.492 310.882 268.323 310.878C268.154 310.873 267.986 310.908 267.834 310.977ZM295.523 326.619L301.618 323.287C301.87 323.144 301.858 322.905 301.618 322.762L294.576 318.917C294.426 318.844 294.259 318.806 294.09 318.806C293.921 318.806 293.755 318.844 293.604 318.917L287.521 322.249C287.256 322.38 287.282 322.619 287.521 322.774L294.551 326.619C294.701 326.692 294.868 326.73 295.037 326.73C295.206 326.73 295.372 326.692 295.523 326.619ZM286.689 331.478L292.784 328.147C293.036 328.004 293.024 327.777 292.784 327.622L285.742 323.777C285.592 323.704 285.425 323.665 285.256 323.665C285.087 323.665 284.921 323.704 284.77 323.777L278.687 327.108C278.422 327.251 278.435 327.478 278.687 327.634L285.729 331.478C285.87 331.54 286.023 331.572 286.177 331.572C286.332 331.572 286.485 331.54 286.625 331.478H286.689ZM277.791 336.338L283.887 333.007C284.139 332.875 284.127 332.636 283.887 332.481L276.845 328.637C276.695 328.563 276.528 328.525 276.359 328.525C276.19 328.525 276.023 328.563 275.873 328.637L269.689 331.932C269.424 332.075 269.437 332.314 269.689 332.457L276.731 336.302C276.882 336.385 277.051 336.432 277.225 336.438C277.399 336.444 277.572 336.41 277.728 336.338H277.791ZM268.957 341.197L275.053 337.866C275.305 337.735 275.293 337.496 275.053 337.341L268.011 333.496C267.86 333.426 267.694 333.389 267.525 333.389C267.357 333.389 267.19 333.426 267.039 333.496L260.944 336.827C260.691 336.971 260.704 337.209 260.944 337.353L267.986 341.197C268.116 341.249 268.255 341.276 268.396 341.276C268.537 341.276 268.676 341.249 268.806 341.197H268.957ZM312.761 306.285L318.844 302.954C319.109 302.81 319.097 302.583 318.844 302.428L311.714 298.584C311.564 298.51 311.397 298.472 311.228 298.472C311.059 298.472 310.892 298.51 310.742 298.584L304.647 301.915C304.394 302.058 304.407 302.285 304.647 302.44L311.714 306.261C311.856 306.33 312.012 306.368 312.172 306.373C312.331 306.377 312.49 306.347 312.635 306.285H312.761ZM304.558 321.807L318.024 314.332C318.276 314.189 318.264 313.95 318.024 313.807L300.873 304.47C300.723 304.397 300.557 304.358 300.388 304.358C300.218 304.358 300.052 304.397 299.902 304.47L292.885 308.303C292.62 308.446 292.633 308.685 292.885 308.84L301.946 313.783C302.224 313.938 302.236 314.177 301.946 314.309L296.33 317.377C296.065 317.52 296.09 317.759 296.33 317.914L303.372 321.759C303.534 321.844 303.717 321.888 303.902 321.888C304.088 321.888 304.27 321.844 304.432 321.759L304.558 321.807ZM259.126 315.837L253.031 319.168C252.779 319.299 252.791 319.538 253.031 319.693L259.972 323.574C260.123 323.645 260.289 323.681 260.458 323.681C260.626 323.681 260.793 323.645 260.944 323.574L267.027 320.243C267.292 320.099 267.279 319.861 267.027 319.717L259.972 315.861C259.816 315.773 259.639 315.725 259.458 315.721C259.277 315.717 259.097 315.757 258.937 315.837H259.126ZM250.229 320.696L244.134 324.028C243.881 324.171 243.894 324.398 244.134 324.553L251.176 328.398C251.326 328.471 251.493 328.509 251.662 328.509C251.831 328.509 251.997 328.471 252.148 328.398L258.23 325.066C258.495 324.923 258.483 324.684 258.23 324.541L251.188 320.696C251.017 320.592 250.818 320.537 250.614 320.537C250.411 320.537 250.211 320.592 250.04 320.696H250.229ZM205.756 375.203C205.907 375.276 206.073 375.314 206.242 375.314C206.411 375.314 206.578 375.276 206.728 375.203L212.824 371.871C213.076 371.728 213.063 371.489 212.824 371.346L205.782 367.501C205.631 367.428 205.465 367.39 205.296 367.39C205.127 367.39 204.96 367.428 204.81 367.501L198.727 370.832C198.462 370.964 198.475 371.203 198.727 371.358L205.756 375.203ZM179.04 359.585L172.755 362.976C172.503 363.107 172.515 363.346 172.755 363.501L179.797 367.346C179.948 367.417 180.114 367.453 180.283 367.453C180.451 367.453 180.618 367.417 180.769 367.346L186.852 364.015C187.117 363.871 187.104 363.633 186.852 363.489L179.81 359.645C179.666 359.564 179.504 359.516 179.338 359.506C179.171 359.496 179.004 359.523 178.851 359.585H179.04ZM193.364 370.988C193.514 371.061 193.68 371.099 193.849 371.099C194.019 371.099 194.185 371.061 194.335 370.988L200.418 367.656C200.683 367.513 200.658 367.274 200.418 367.131L193.376 363.286C193.226 363.213 193.059 363.175 192.89 363.175C192.721 363.175 192.555 363.213 192.404 363.286L186.322 366.618C186.069 366.761 186.082 366.988 186.322 367.143L193.364 370.988ZM221.468 378.152L227.564 374.82C227.816 374.677 227.804 374.438 227.564 374.295L220.522 370.45C220.372 370.377 220.205 370.339 220.036 370.339C219.867 370.339 219.7 370.377 219.55 370.45L213.278 373.722C213.013 373.853 213.026 374.092 213.278 374.247L220.32 378.092C220.464 378.172 220.625 378.22 220.791 378.233C220.957 378.245 221.124 378.221 221.279 378.164L221.468 378.152ZM211.6 382.928C211.75 383.001 211.916 383.039 212.085 383.039C212.254 383.039 212.421 383.001 212.571 382.928L218.667 379.596C218.919 379.453 218.906 379.214 218.667 379.071L211.625 375.226C211.475 375.153 211.308 375.115 211.139 375.115C210.97 375.115 210.803 375.153 210.653 375.226L204.558 378.558C204.305 378.689 204.318 378.928 204.558 379.083L211.6 382.928ZM187.937 354.654L181.842 357.973C181.589 358.116 181.602 358.355 181.842 358.51L188.884 362.355C189.035 362.426 189.201 362.462 189.369 362.462C189.538 362.462 189.704 362.426 189.855 362.355L195.938 359.024C196.203 358.881 196.19 358.642 195.938 358.498L188.896 354.642C188.715 354.554 188.512 354.515 188.309 354.53C188.107 354.544 187.912 354.612 187.748 354.725L187.937 354.654ZM232.208 330.416L226.113 333.747C225.86 333.89 225.873 334.129 226.113 334.272L233.154 338.117C233.305 338.19 233.471 338.228 233.64 338.228C233.809 338.228 233.976 338.19 234.126 338.117L240.209 334.786C240.474 334.654 240.449 334.416 240.209 334.26L233.167 330.416C233.018 330.345 232.854 330.309 232.688 330.309C232.521 330.309 232.357 330.345 232.208 330.416ZM196.645 349.842L190.562 353.185C190.297 353.328 190.31 353.567 190.562 353.722L197.604 357.567C197.754 357.64 197.921 357.679 198.09 357.679C198.259 357.679 198.425 357.64 198.576 357.567L204.671 354.248C204.924 354.105 204.911 353.866 204.671 353.711L197.617 349.842C197.465 349.771 197.299 349.735 197.131 349.735C196.962 349.735 196.796 349.771 196.645 349.842ZM241.143 325.532L235.047 328.863C234.795 329.007 234.808 329.245 235.047 329.389L242.089 333.233C242.24 333.307 242.406 333.345 242.575 333.345C242.744 333.345 242.911 333.307 243.061 333.233L249.144 329.902C249.409 329.759 249.384 329.532 249.144 329.377L242.102 325.532C241.951 325.465 241.786 325.431 241.619 325.436C241.453 325.44 241.29 325.481 241.143 325.556V325.532ZM223.374 335.275L217.291 338.606C217.026 338.75 217.051 338.989 217.291 339.132L224.333 342.976C224.483 343.05 224.65 343.088 224.819 343.088C224.988 343.088 225.155 343.05 225.305 342.976L231.388 339.657C231.64 339.514 231.627 339.275 231.388 339.12L224.346 335.275C224.195 335.205 224.028 335.168 223.86 335.168C223.691 335.168 223.525 335.205 223.374 335.275ZM214.477 340.147L208.394 343.466C208.129 343.609 208.154 343.848 208.394 343.991L215.423 347.848C215.574 347.919 215.741 347.955 215.909 347.955C216.078 347.955 216.244 347.919 216.395 347.848L222.491 344.529C222.743 344.385 222.73 344.147 222.491 343.991L215.449 340.147C215.294 340.067 215.12 340.026 214.944 340.026C214.768 340.026 214.594 340.067 214.439 340.147H214.477ZM205.643 345.006L199.56 348.326C199.295 348.469 199.308 348.708 199.56 348.863L206.602 352.708C206.753 352.778 206.919 352.815 207.088 352.815C207.256 352.815 207.423 352.778 207.574 352.708L213.669 349.388C213.922 349.245 213.909 349.006 213.669 348.851L206.514 345.066C206.363 344.995 206.196 344.959 206.028 344.959C205.859 344.959 205.693 344.995 205.542 345.066L205.643 345.006ZM251.075 350.917L257.158 347.597C257.423 347.454 257.397 347.215 257.158 347.06L250.116 343.215C249.966 343.142 249.799 343.104 249.63 343.104C249.461 343.104 249.294 343.142 249.144 343.215L243.049 346.535C242.796 346.678 242.809 346.917 243.049 347.072L250.09 350.917C250.238 350.983 250.4 351.018 250.564 351.018C250.728 351.018 250.889 350.983 251.037 350.917H251.075ZM329.231 277.462L323.072 280.793C322.82 280.924 322.832 281.163 323.072 281.318L330.114 285.163C330.265 285.234 330.431 285.27 330.6 285.27C330.768 285.27 330.935 285.234 331.086 285.163L337.169 281.832C337.434 281.688 337.421 281.45 337.169 281.306L330.127 277.462C329.981 277.394 329.821 277.359 329.66 277.359C329.498 277.359 329.338 277.394 329.193 277.462H329.231ZM318.453 283.348L312.37 286.667C312.105 286.811 312.118 287.05 312.37 287.205L319.412 291.049C319.562 291.123 319.729 291.161 319.898 291.161C320.067 291.161 320.234 291.123 320.384 291.049L326.479 287.73C326.732 287.587 326.719 287.348 326.479 287.193L319.437 283.348C319.28 283.27 319.104 283.229 318.926 283.229C318.748 283.229 318.573 283.27 318.415 283.348H318.453ZM338.128 272.602L332.032 275.921C331.78 276.065 331.792 276.304 332.032 276.459L339.074 280.303C339.225 280.374 339.391 280.411 339.56 280.411C339.729 280.411 339.895 280.374 340.046 280.303L346.129 276.972C346.394 276.829 346.381 276.59 346.129 276.447L339.087 272.59C338.931 272.518 338.76 272.481 338.587 272.483C338.413 272.485 338.243 272.526 338.09 272.602H338.128ZM292.027 317.604L298.122 314.273C298.375 314.129 298.362 313.891 298.122 313.747L291.08 309.891C290.929 309.82 290.763 309.783 290.594 309.783C290.426 309.783 290.26 309.82 290.109 309.891L283.95 313.138C283.698 313.282 283.71 313.52 283.95 313.676L290.992 317.52C291.144 317.614 291.318 317.671 291.498 317.685C291.679 317.7 291.86 317.672 292.027 317.604ZM347.959 267.814C347.807 267.744 347.641 267.707 347.473 267.707C347.304 267.707 347.138 267.744 346.987 267.814L340.904 271.038C340.639 271.181 340.652 271.42 340.904 271.575L347.946 275.42C348.096 275.493 348.263 275.532 348.432 275.532C348.601 275.532 348.768 275.493 348.918 275.42L355.013 272.101C355.266 271.957 355.253 271.719 355.013 271.563L347.959 267.814ZM259.972 346.057L266.055 342.738C266.32 342.594 266.307 342.356 266.055 342.2L259.013 338.356C258.862 338.285 258.695 338.248 258.527 338.248C258.358 338.248 258.192 338.285 258.041 338.356L251.946 341.687C251.693 341.83 251.706 342.069 251.946 342.212L258.988 346.069C259.141 346.14 259.31 346.175 259.481 346.173C259.652 346.171 259.82 346.131 259.972 346.057ZM369.097 286.453L375.18 283.121C375.445 282.978 375.432 282.739 375.18 282.596L368.138 278.751C367.988 278.678 367.821 278.64 367.652 278.64C367.483 278.64 367.316 278.678 367.166 278.751L361.071 282.082C360.818 282.214 360.831 282.453 361.071 282.608L368.113 286.453C368.26 286.522 368.422 286.558 368.586 286.558C368.75 286.558 368.912 286.522 369.059 286.453H369.097ZM350.167 285.82L356.25 282.488C356.515 282.345 356.502 282.106 356.25 281.963L349.208 278.118C349.058 278.045 348.891 278.007 348.722 278.007C348.553 278.007 348.386 278.045 348.236 278.118L342.002 281.426C341.75 281.557 341.762 281.796 342.002 281.951L349.044 285.796C349.203 285.888 349.384 285.938 349.571 285.942C349.757 285.946 349.941 285.904 350.104 285.82H350.167ZM358.08 273.247C357.929 273.176 357.763 273.14 357.594 273.14C357.425 273.14 357.259 273.176 357.108 273.247L351.013 276.566C350.76 276.709 350.773 276.948 351.013 277.103L358.055 280.948C358.206 281.019 358.372 281.055 358.54 281.055C358.709 281.055 358.875 281.019 359.026 280.948L365.122 277.617C365.374 277.474 365.362 277.235 365.122 277.092L358.08 273.247ZM359.948 272.232L377.048 281.569C377.199 281.64 377.365 281.676 377.534 281.676C377.702 281.676 377.868 281.64 378.019 281.569L384.115 278.238C384.367 278.095 384.355 277.856 384.115 277.712L367.015 268.363C366.864 268.293 366.697 268.256 366.529 268.256C366.36 268.256 366.194 268.293 366.043 268.363L359.96 271.683C359.594 271.838 359.67 272.077 359.885 272.232H359.948ZM339.314 282.978L333.168 286.285C332.916 286.429 332.928 286.656 333.168 286.811L340.21 290.655C340.36 290.729 340.527 290.767 340.696 290.767C340.865 290.767 341.031 290.729 341.182 290.655L347.265 287.324C347.53 287.181 347.517 286.954 347.265 286.799L340.223 282.978C340.072 282.905 339.906 282.866 339.737 282.866C339.568 282.866 339.401 282.905 339.251 282.978H339.314ZM272.34 319.562L266.244 322.893C265.992 323.037 266.004 323.264 266.244 323.419L273.286 327.263C273.436 327.337 273.603 327.375 273.772 327.375C273.941 327.375 274.108 327.337 274.258 327.263L280.341 323.932C280.606 323.789 280.58 323.562 280.341 323.407L273.311 319.562C273.155 319.475 272.978 319.427 272.797 319.423C272.616 319.418 272.437 319.458 272.276 319.538L272.34 319.562ZM359.19 291.336C359.341 291.409 359.507 291.448 359.676 291.448C359.845 291.448 360.012 291.409 360.162 291.336L366.245 288.005C366.51 287.861 366.497 287.635 366.245 287.479L359.203 283.635C359.053 283.561 358.886 283.523 358.717 283.523C358.548 283.523 358.382 283.561 358.231 283.635L352.098 286.918C351.846 287.061 351.858 287.288 352.098 287.444L359.19 291.336ZM281.174 314.679L275.116 318.01C274.864 318.141 274.876 318.38 275.116 318.535L282.158 322.38C282.308 322.453 282.475 322.492 282.644 322.492C282.813 322.492 282.979 322.453 283.13 322.38L289.212 319.049C289.478 318.905 289.465 318.667 289.212 318.523L282.171 314.679C282.017 314.601 281.846 314.561 281.672 314.561C281.498 314.561 281.327 314.601 281.174 314.679ZM214.464 370.343C214.615 370.414 214.782 370.45 214.95 370.45C215.119 370.45 215.285 370.414 215.436 370.343L221.531 367.012C221.784 366.868 221.771 366.63 221.531 366.486L214.489 362.642C214.339 362.568 214.173 362.53 214.004 362.53C213.835 362.53 213.668 362.568 213.518 362.642L207.435 365.973C207.17 366.104 207.182 366.343 207.435 366.498L214.464 370.343ZM201.087 358.403L194.992 361.782C194.739 361.913 194.752 362.152 194.992 362.307L202.034 366.152C202.185 366.223 202.351 366.259 202.519 366.259C202.688 366.259 202.854 366.223 203.005 366.152L209.088 362.821C209.353 362.677 209.328 362.439 209.088 362.295L202.059 358.451C201.911 358.374 201.745 358.331 201.576 358.327C201.407 358.323 201.239 358.357 201.087 358.427V358.403ZM224.333 365.483L230.429 362.152C230.681 362.009 230.668 361.77 230.429 361.627L223.374 357.794C223.223 357.723 223.057 357.687 222.888 357.687C222.72 357.687 222.553 357.723 222.402 357.794L216.319 361.113C216.054 361.257 216.08 361.495 216.319 361.651L223.374 365.483C223.521 365.556 223.684 365.596 223.851 365.6C224.017 365.604 224.182 365.572 224.333 365.507V365.483ZM233.243 360.612L239.326 357.293C239.578 357.149 239.565 356.91 239.326 356.755L232.208 352.934C232.057 352.864 231.891 352.827 231.722 352.827C231.554 352.827 231.387 352.864 231.236 352.934L225.153 356.254C224.888 356.397 224.914 356.636 225.153 356.791L232.195 360.636C232.359 360.714 232.542 360.751 232.726 360.743C232.909 360.735 233.088 360.681 233.243 360.588V360.612ZM242.14 355.752L248.223 352.433C248.488 352.29 248.463 352.051 248.223 351.896L241.181 348.051C241.032 347.981 240.868 347.944 240.701 347.944C240.535 347.944 240.371 347.981 240.222 348.051L234.126 351.37C233.874 351.514 233.886 351.752 234.126 351.908L241.168 355.812C241.319 355.883 241.486 355.919 241.654 355.919C241.823 355.919 241.989 355.883 242.14 355.812V355.752ZM209.984 353.543L203.889 356.863C203.636 357.006 203.649 357.245 203.889 357.4L210.931 361.245C211.082 361.315 211.248 361.352 211.417 361.352C211.585 361.352 211.751 361.315 211.902 361.245L217.985 357.913C218.25 357.77 218.238 357.531 217.985 357.388L210.943 353.531C210.791 353.468 210.625 353.439 210.459 353.445C210.293 353.451 210.131 353.493 209.984 353.567V353.543ZM218.881 348.684L212.786 352.003C212.533 352.146 212.546 352.385 212.786 352.54L219.828 356.385C219.978 356.458 220.145 356.497 220.314 356.497C220.483 356.497 220.649 356.458 220.799 356.385L226.882 353.066C227.147 352.923 227.135 352.684 226.882 352.528L219.84 348.684C219.689 348.619 219.524 348.587 219.358 348.591C219.192 348.595 219.029 348.635 218.881 348.708V348.684ZM254.47 329.234L248.387 332.565C248.122 332.708 248.147 332.947 248.387 333.09L255.429 336.935C255.577 337.008 255.741 337.046 255.908 337.046C256.075 337.046 256.24 337.008 256.388 336.935L262.483 333.604C262.736 333.472 262.723 333.233 262.483 333.078L255.441 329.234C255.288 329.167 255.121 329.134 254.953 329.138C254.784 329.142 254.619 329.183 254.47 329.257V329.234ZM245.636 334.093L239.553 337.424C239.288 337.568 239.313 337.806 239.553 337.95L246.582 341.806C246.733 341.877 246.899 341.914 247.068 341.914C247.237 341.914 247.403 341.877 247.554 341.806L253.649 338.487C253.902 338.344 253.889 338.105 253.649 337.95L246.607 334.105C246.447 334.026 246.269 333.986 246.088 333.988C245.908 333.991 245.731 334.035 245.573 334.117L245.636 334.093ZM263.442 324.374L257.347 327.705C257.095 327.848 257.107 328.087 257.347 328.231L264.389 332.075C264.539 332.149 264.706 332.187 264.875 332.187C265.044 332.187 265.21 332.149 265.361 332.075L271.444 328.744C271.709 328.613 271.683 328.374 271.444 328.219L264.402 324.374C264.244 324.294 264.066 324.254 263.887 324.258C263.708 324.262 263.533 324.31 263.379 324.398L263.442 324.374ZM227.778 343.872L221.696 347.191C221.43 347.335 221.443 347.573 221.696 347.729L228.737 351.573C228.889 351.644 229.055 351.681 229.223 351.681C229.392 351.681 229.558 351.644 229.709 351.573L235.805 348.254C236.057 348.111 236.044 347.872 235.805 347.717L228.75 343.872C228.599 343.801 228.433 343.765 228.264 343.765C228.096 343.765 227.929 343.801 227.778 343.872ZM236.612 339.012L230.53 342.332C230.264 342.475 230.277 342.714 230.53 342.869L237.571 346.714C237.723 346.784 237.889 346.821 238.057 346.821C238.226 346.821 238.392 346.784 238.543 346.714L244.639 343.394C244.891 343.251 244.878 343.012 244.639 342.857L237.597 339.012C237.455 338.943 237.298 338.905 237.139 338.901C236.979 338.897 236.821 338.927 236.675 338.989L236.612 339.012ZM230.113 373.328L236.209 369.997C236.461 369.853 236.448 369.615 236.209 369.471L229.167 365.615C229.015 365.544 228.849 365.507 228.681 365.507C228.512 365.507 228.346 365.544 228.195 365.615L222.112 368.946C221.847 369.089 221.86 369.328 222.112 369.483L229.141 373.328C229.303 373.405 229.481 373.443 229.662 373.439C229.842 373.434 230.019 373.388 230.176 373.304L230.113 373.328ZM177.942 368.313L170.913 364.468C170.762 364.395 170.596 364.357 170.427 364.357C170.258 364.357 170.091 364.395 169.941 364.468L163.858 367.752C163.606 367.883 163.618 368.122 163.858 368.277L170.9 372.122C171.05 372.195 171.217 372.234 171.386 372.234C171.555 372.234 171.722 372.195 171.872 372.122L177.955 368.791C178.257 368.695 178.232 368.456 177.942 368.313ZM191.281 372.015L184.252 368.17C184.102 368.097 183.935 368.058 183.766 368.058C183.597 368.058 183.43 368.097 183.28 368.17L173.916 373.292C173.664 373.435 173.676 373.662 173.916 373.817L180.958 377.662C181.108 377.735 181.275 377.774 181.444 377.774C181.613 377.774 181.78 377.735 181.93 377.662L191.294 372.54C191.584 372.397 191.572 372.17 191.294 372.015H191.281ZM167.152 360.875L160.123 357.006C159.971 356.935 159.805 356.899 159.637 356.899C159.468 356.899 159.302 356.935 159.151 357.006L151.655 361.101C151.389 361.245 151.415 361.483 151.655 361.639L158.684 365.483C158.835 365.554 159.001 365.591 159.17 365.591C159.338 365.591 159.504 365.554 159.656 365.483L167.152 361.388C167.455 361.269 167.442 361.03 167.164 360.875H167.152ZM172.894 357.734C173.044 357.808 173.211 357.846 173.38 357.846C173.549 357.846 173.715 357.808 173.866 357.734L179.949 354.403C180.214 354.26 180.188 354.033 179.949 353.878L172.894 350.057C172.744 349.984 172.577 349.945 172.408 349.945C172.239 349.945 172.072 349.984 171.922 350.057L165.827 353.424C165.574 353.567 165.587 353.794 165.827 353.949L172.894 357.734ZM203.687 376.229L196.645 372.385C196.495 372.311 196.328 372.273 196.159 372.273C195.99 372.273 195.823 372.311 195.673 372.385L183.962 378.785C183.709 378.928 183.722 379.167 183.962 379.31L191.004 383.155C191.154 383.228 191.32 383.266 191.49 383.266C191.659 383.266 191.825 383.228 191.975 383.155L203.674 376.755C203.99 376.611 203.977 376.385 203.699 376.229H203.687ZM209.53 384.026L202.488 380.182C202.338 380.108 202.171 380.07 202.002 380.07C201.833 380.07 201.666 380.108 201.516 380.182L194.02 384.277C193.767 384.42 193.78 384.659 194.02 384.802L201.062 388.659C201.213 388.729 201.379 388.766 201.548 388.766C201.716 388.766 201.882 388.729 202.034 388.659L209.517 384.563C209.833 384.468 209.82 384.181 209.492 384.026H209.53ZM239.048 321.592C239.198 321.665 239.365 321.703 239.534 321.703C239.703 321.703 239.87 321.665 240.02 321.592L246.115 318.261C246.368 318.129 246.355 317.891 246.115 317.735L239.073 313.891C238.923 313.817 238.756 313.779 238.587 313.779C238.418 313.779 238.252 313.817 238.102 313.891L232.019 317.222C231.754 317.365 231.779 317.604 232.019 317.747L239.048 321.592ZM221.254 331.323C221.405 331.394 221.571 331.43 221.74 331.43C221.908 331.43 222.074 331.394 222.226 331.323L228.321 328.004C228.573 327.86 228.561 327.622 228.321 327.466L221.279 323.622C221.128 323.551 220.962 323.514 220.793 323.514C220.625 323.514 220.458 323.551 220.307 323.622L214.224 326.953C213.959 327.096 213.972 327.335 214.224 327.478L221.254 331.323ZM181.791 352.875C181.941 352.948 182.108 352.986 182.277 352.986C182.446 352.986 182.613 352.948 182.763 352.875L188.846 349.543C189.111 349.4 189.098 349.161 188.846 349.018L181.804 345.173C181.653 345.1 181.487 345.062 181.318 345.062C181.149 345.062 180.982 345.1 180.832 345.173L174.736 348.505C174.484 348.636 174.497 348.875 174.736 349.03L181.791 352.875ZM230.151 326.452C230.301 326.525 230.468 326.563 230.637 326.563C230.806 326.563 230.972 326.525 231.123 326.452L237.218 323.12C237.471 322.989 237.458 322.75 237.218 322.595L230.151 318.798C230 318.727 229.834 318.691 229.665 318.691C229.497 318.691 229.33 318.727 229.179 318.798L223.096 322.129C222.831 322.273 222.844 322.511 223.096 322.655L230.151 326.452ZM212.357 336.183C212.508 336.253 212.674 336.29 212.843 336.29C213.011 336.29 213.177 336.253 213.328 336.183L219.424 332.863C219.676 332.72 219.664 332.481 219.424 332.326L212.382 328.481C212.232 328.408 212.065 328.37 211.896 328.37C211.727 328.37 211.56 328.408 211.41 328.481L205.315 331.801C205.062 331.944 205.075 332.183 205.315 332.338L212.357 336.183ZM214.414 384.647C214.264 384.574 214.097 384.536 213.928 384.536C213.759 384.536 213.592 384.574 213.442 384.647L204.078 389.757C203.826 389.901 203.838 390.139 204.078 390.295L211.12 394.139C211.271 394.21 211.437 394.247 211.606 394.247C211.774 394.247 211.941 394.21 212.092 394.139L221.456 389.029C221.708 388.886 221.696 388.647 221.456 388.492L214.414 384.647ZM199.598 343.156C199.748 343.229 199.915 343.267 200.084 343.267C200.253 343.267 200.419 343.229 200.57 343.156L206.665 339.836C206.917 339.693 206.905 339.454 206.665 339.299L199.585 335.514C199.434 335.443 199.268 335.407 199.099 335.407C198.931 335.407 198.765 335.443 198.614 335.514L192.531 338.833C192.266 338.977 192.278 339.215 192.531 339.371L199.598 343.156ZM190.764 348.015C190.915 348.086 191.081 348.122 191.25 348.122C191.418 348.122 191.585 348.086 191.736 348.015L197.818 344.684C198.083 344.541 198.071 344.302 197.818 344.159L190.688 340.29C190.538 340.217 190.371 340.178 190.202 340.178C190.033 340.178 189.867 340.217 189.716 340.29L183.621 343.609C183.369 343.753 183.381 343.991 183.621 344.147L190.764 348.015ZM379.357 294.596C379.206 294.525 379.04 294.488 378.871 294.488C378.703 294.488 378.537 294.525 378.385 294.596L363.393 302.786C363.14 302.93 363.153 303.169 363.393 303.324L370.435 307.168C370.586 307.239 370.752 307.276 370.921 307.276C371.089 307.276 371.255 307.239 371.407 307.168L386.387 298.978C386.652 298.846 386.639 298.607 386.387 298.452L379.357 294.596ZM359.683 305.342C359.532 305.268 359.366 305.23 359.197 305.23C359.028 305.23 358.861 305.268 358.711 305.342L352.628 308.673C352.363 308.816 352.376 309.055 352.628 309.198L359.67 313.043C359.82 313.116 359.987 313.154 360.156 313.154C360.325 313.154 360.491 313.116 360.642 313.043L366.737 309.712C366.99 309.58 366.977 309.342 366.737 309.186L359.683 305.342ZM239.136 368.433L245.232 365.113C245.484 364.97 245.472 364.731 245.232 364.576L238.19 360.731C238.039 360.661 237.872 360.624 237.704 360.624C237.535 360.624 237.369 360.661 237.218 360.731L231.135 364.051C230.87 364.194 230.895 364.433 231.135 364.588L238.177 368.433C238.317 368.496 238.47 368.529 238.625 368.529C238.78 368.529 238.933 368.496 239.073 368.433H239.136ZM341.888 315.061C341.738 314.987 341.572 314.949 341.403 314.949C341.233 314.949 341.067 314.987 340.917 315.061L334.821 318.38C334.569 318.523 334.581 318.762 334.821 318.917L341.863 322.762C342.014 322.833 342.181 322.869 342.349 322.869C342.518 322.869 342.684 322.833 342.835 322.762L348.918 319.443C349.183 319.299 349.17 319.061 348.918 318.905L341.888 315.061ZM388.254 289.736C388.104 289.663 387.937 289.624 387.768 289.624C387.599 289.624 387.433 289.663 387.283 289.736L381.124 293.043C380.872 293.187 380.884 293.425 381.124 293.569L388.166 297.413C388.316 297.487 388.483 297.525 388.652 297.525C388.821 297.525 388.987 297.487 389.138 297.413L395.221 294.082C395.486 293.951 395.473 293.712 395.221 293.557L388.254 289.736ZM404.193 288.721L387.03 279.396C386.88 279.323 386.713 279.284 386.544 279.284C386.375 279.284 386.209 279.323 386.058 279.396L379.976 282.727C379.711 282.859 379.723 283.097 379.976 283.253L397.101 292.53C397.251 292.603 397.418 292.642 397.587 292.642C397.756 292.642 397.922 292.603 398.073 292.53L404.168 289.199C404.421 289.103 404.408 288.876 404.13 288.721H404.193ZM308.635 333.221C308.484 333.151 308.317 333.114 308.149 333.114C307.98 333.114 307.814 333.151 307.663 333.221L300.167 337.317C299.902 337.448 299.927 337.687 300.167 337.842L307.209 341.687C307.359 341.76 307.525 341.799 307.695 341.799C307.864 341.799 308.03 341.76 308.18 341.687L315.664 337.592C315.929 337.448 315.916 337.209 315.664 337.066L308.635 333.221ZM331.111 320.947C330.96 320.877 330.794 320.84 330.625 320.84C330.457 320.84 330.29 320.877 330.139 320.947L320.775 326.069C320.51 326.213 320.535 326.452 320.775 326.595L327.817 330.439C327.967 330.513 328.134 330.551 328.303 330.551C328.472 330.551 328.639 330.513 328.789 330.439L338.153 325.317C338.405 325.186 338.393 324.947 338.153 324.792L331.111 320.947ZM288.026 344.481C287.876 344.408 287.709 344.369 287.54 344.369C287.371 344.369 287.205 344.408 287.054 344.481L236.877 371.835C236.612 371.979 236.638 372.218 236.877 372.373L243.907 376.217C244.058 376.288 244.224 376.325 244.393 376.325C244.561 376.325 244.727 376.288 244.878 376.217L294.992 348.851C295.257 348.708 295.245 348.469 294.992 348.314L288.026 344.481ZM235.098 373.388C234.947 373.317 234.781 373.28 234.612 373.28C234.444 373.28 234.277 373.317 234.126 373.388L226.63 377.483C226.378 377.614 226.39 377.853 226.63 378.008L233.672 381.853C233.822 381.926 233.989 381.965 234.158 381.965C234.327 381.965 234.493 381.926 234.644 381.853L242.14 377.758C242.392 377.614 242.38 377.376 242.14 377.232L235.098 373.388ZM298.324 338.857C298.174 338.784 298.007 338.746 297.838 338.746C297.669 338.746 297.503 338.784 297.352 338.857L289.869 342.953C289.604 343.096 289.616 343.335 289.869 343.478L296.911 347.335C297.062 347.405 297.228 347.442 297.397 347.442C297.565 347.442 297.731 347.405 297.882 347.335L305.379 343.239C305.631 343.096 305.618 342.869 305.379 342.714L298.324 338.857ZM224.8 379.023C224.65 378.95 224.483 378.912 224.314 378.912C224.145 378.912 223.979 378.95 223.828 379.023L216.332 383.119C216.067 383.262 216.092 383.501 216.332 383.644L223.374 387.501C223.523 387.571 223.687 387.608 223.854 387.608C224.02 387.608 224.184 387.571 224.333 387.501L231.829 383.405C232.094 383.262 232.082 383.035 231.829 382.88L224.8 379.023ZM318.933 327.598C318.782 327.527 318.615 327.491 318.447 327.491C318.278 327.491 318.112 327.527 317.961 327.598L310.452 331.669C310.2 331.813 310.212 332.051 310.452 332.207L317.494 336.051C317.644 336.125 317.811 336.163 317.98 336.163C318.149 336.163 318.315 336.125 318.466 336.051L325.962 331.968C326.214 331.825 326.202 331.586 325.962 331.43L318.933 327.598ZM350.785 310.201C350.634 310.131 350.468 310.094 350.3 310.094C350.131 310.094 349.965 310.131 349.814 310.201L343.718 313.532C343.466 313.676 343.479 313.915 343.718 314.058L350.76 317.914C350.911 317.985 351.078 318.022 351.246 318.022C351.415 318.022 351.581 317.985 351.732 317.914L357.815 314.595C358.08 314.452 358.067 314.213 357.815 314.058L350.785 310.201ZM370.283 296.804L376.366 293.473C376.631 293.342 376.619 293.103 376.366 292.948L369.324 289.103C369.174 289.03 369.007 288.992 368.838 288.992C368.669 288.992 368.503 289.03 368.353 289.103L362.194 292.411C361.942 292.554 361.954 292.793 362.194 292.936L369.236 296.781C369.386 296.86 369.554 296.903 369.725 296.907C369.896 296.911 370.066 296.876 370.22 296.804H370.283ZM330.493 296.566L336.588 293.234C336.84 293.091 336.828 292.852 336.588 292.709L329.546 288.864C329.396 288.791 329.229 288.753 329.06 288.753C328.891 288.753 328.725 288.791 328.574 288.864L322.491 292.184C322.226 292.327 322.239 292.566 322.491 292.721L329.533 296.566C329.674 296.625 329.827 296.656 329.981 296.656C330.136 296.656 330.288 296.625 330.429 296.566H330.493ZM310.301 329.556L328.095 319.825C328.347 319.693 328.335 319.455 328.095 319.299L321.053 315.455C320.903 315.381 320.736 315.343 320.567 315.343C320.398 315.343 320.231 315.381 320.081 315.455L302.287 325.174C302.022 325.317 302.047 325.556 302.287 325.711L309.329 329.556C309.478 329.621 309.64 329.653 309.803 329.651C309.967 329.649 310.128 329.613 310.275 329.544L310.301 329.556ZM360.377 301.64C360.527 301.714 360.694 301.752 360.863 301.752C361.032 301.752 361.198 301.714 361.348 301.64L367.431 298.321C367.696 298.178 367.671 297.939 367.431 297.784L360.402 293.939C360.251 293.868 360.085 293.832 359.916 293.832C359.748 293.832 359.581 293.868 359.43 293.939L353.272 297.306C353.019 297.449 353.032 297.688 353.272 297.831L360.377 301.64ZM351.29 296.172L357.373 292.84C357.638 292.709 357.626 292.47 357.373 292.315L350.344 288.47C350.194 288.397 350.027 288.359 349.858 288.359C349.689 288.359 349.522 288.397 349.372 288.47L343.264 291.778C343.012 291.921 343.024 292.16 343.264 292.303L350.306 296.148C350.453 296.223 350.616 296.264 350.782 296.268C350.949 296.272 351.114 296.239 351.265 296.172H351.29ZM301.391 334.38L307.486 331.048C307.739 330.905 307.726 330.666 307.486 330.523L300.356 326.714C300.206 326.641 300.039 326.603 299.87 326.603C299.701 326.603 299.534 326.641 299.384 326.714L293.301 330.045C293.036 330.177 293.062 330.416 293.301 330.571L300.331 334.415C300.49 334.496 300.668 334.538 300.848 334.538C301.029 334.538 301.206 334.496 301.366 334.415L301.391 334.38ZM340.74 312.386C340.89 312.46 341.057 312.498 341.226 312.498C341.395 312.498 341.561 312.46 341.712 312.386L347.795 309.055C348.06 308.924 348.047 308.685 347.795 308.53L340.753 304.685C340.602 304.612 340.436 304.573 340.267 304.573C340.098 304.573 339.931 304.612 339.781 304.685L333.597 308.052C333.345 308.195 333.357 308.434 333.597 308.577L340.74 312.386ZM256.943 358.713L263.026 355.394C263.291 355.251 263.266 355.012 263.026 354.857L255.896 351.036C255.745 350.963 255.579 350.924 255.41 350.924C255.241 350.924 255.074 350.963 254.924 351.036L248.828 354.355C248.576 354.499 248.589 354.737 248.828 354.893L255.87 358.737C256.028 358.81 256.203 358.846 256.378 358.842C256.554 358.838 256.726 358.794 256.88 358.713H256.943ZM265.777 353.854L271.86 350.534C272.125 350.391 272.112 350.152 271.86 349.997L264.818 346.153C264.667 346.082 264.501 346.045 264.332 346.045C264.164 346.045 263.997 346.082 263.846 346.153L257.751 349.484C257.498 349.627 257.511 349.866 257.751 350.009L264.793 353.854C264.945 353.929 265.114 353.968 265.285 353.968C265.456 353.968 265.625 353.929 265.777 353.854ZM247.983 363.573L254.066 360.254C254.331 360.11 254.306 359.872 254.066 359.716L247.024 355.872C246.873 355.801 246.706 355.764 246.538 355.764C246.369 355.764 246.203 355.801 246.052 355.872L239.969 359.191C239.717 359.334 239.729 359.573 239.969 359.728L247.011 363.573C247.162 363.644 247.329 363.68 247.497 363.68C247.666 363.68 247.832 363.644 247.983 363.573ZM283.571 344.135L289.667 340.803C289.919 340.66 289.907 340.433 289.667 340.278L282.625 336.433C282.475 336.36 282.308 336.322 282.139 336.322C281.97 336.322 281.803 336.36 281.653 336.433L275.57 339.765C275.305 339.908 275.318 340.135 275.57 340.29L282.612 344.135C282.761 344.206 282.925 344.243 283.092 344.243C283.258 344.243 283.423 344.206 283.571 344.135ZM274.737 348.994L280.82 345.663C281.085 345.532 281.073 345.293 280.82 345.138L273.778 341.293C273.628 341.22 273.461 341.181 273.292 341.181C273.123 341.181 272.957 341.22 272.807 341.293L266.711 344.624C266.459 344.767 266.471 345.006 266.711 345.15L273.753 348.994C273.897 349.06 274.054 349.094 274.214 349.094C274.373 349.094 274.531 349.06 274.674 348.994H274.737ZM292.532 339.275L298.627 335.944C298.879 335.801 298.867 335.562 298.627 335.418L291.522 331.574C291.372 331.5 291.205 331.462 291.036 331.462C290.867 331.462 290.7 331.5 290.55 331.574L284.467 334.905C284.202 335.036 284.215 335.275 284.467 335.43L291.509 339.275C291.658 339.346 291.822 339.384 291.989 339.384C292.156 339.384 292.32 339.346 292.468 339.275H292.532ZM333.168 267.36C333.318 267.434 333.485 267.472 333.654 267.472C333.823 267.472 333.989 267.434 334.14 267.36L340.235 264.029C340.488 263.886 340.475 263.659 340.235 263.504L338.355 262.477C338.205 262.404 338.038 262.365 337.869 262.365C337.7 262.365 337.533 262.404 337.383 262.477L331.3 265.796C331.048 265.94 331.06 266.178 331.3 266.334L333.168 267.36ZM289.389 294.106C289.54 294.177 289.707 294.213 289.875 294.213C290.044 294.213 290.21 294.177 290.361 294.106L296.444 290.787C296.709 290.643 296.696 290.405 296.444 290.249L289.414 286.405C289.264 286.331 289.098 286.293 288.929 286.293C288.76 286.293 288.593 286.331 288.443 286.405L282.347 289.724C282.095 289.867 282.107 290.106 282.347 290.261L289.389 294.106ZM307.183 284.375C307.334 284.448 307.5 284.487 307.669 284.487C307.838 284.487 308.005 284.448 308.155 284.375L314.238 281.068C314.503 280.936 314.49 280.697 314.238 280.542L307.196 276.698C307.045 276.627 306.879 276.59 306.71 276.59C306.542 276.59 306.375 276.627 306.224 276.698L300.129 280.029C299.876 280.172 299.889 280.411 300.129 280.554L307.183 284.375ZM278.523 300.04C278.674 300.111 278.841 300.147 279.009 300.147C279.178 300.147 279.344 300.111 279.495 300.04L285.578 296.721C285.843 296.578 285.818 296.339 285.578 296.184L278.549 292.339C278.397 292.268 278.231 292.232 278.063 292.232C277.894 292.232 277.728 292.268 277.577 292.339L271.481 295.658C271.229 295.802 271.242 296.04 271.481 296.196L278.523 300.04ZM298.286 289.294C298.437 289.365 298.604 289.401 298.772 289.401C298.941 289.401 299.107 289.365 299.258 289.294L305.341 285.975C305.606 285.832 305.593 285.593 305.341 285.438L298.299 281.593C298.148 281.522 297.982 281.486 297.813 281.486C297.645 281.486 297.478 281.522 297.327 281.593L291.232 284.924C290.979 285.067 290.992 285.306 291.232 285.45L298.286 289.294ZM260.729 309.807C260.878 309.878 261.042 309.914 261.209 309.914C261.375 309.914 261.539 309.878 261.688 309.807L267.784 306.476C268.036 306.333 268.024 306.094 267.784 305.951L260.717 302.082C260.565 302.011 260.399 301.975 260.231 301.975C260.062 301.975 259.896 302.011 259.745 302.082L253.662 305.377C253.397 305.521 253.422 305.759 253.662 305.915L260.729 309.807ZM269.563 304.948C269.713 305.021 269.88 305.059 270.049 305.059C270.218 305.059 270.385 305.021 270.535 304.948L276.618 301.628C276.883 301.485 276.858 301.246 276.618 301.091L269.576 297.246C269.427 297.176 269.263 297.139 269.096 297.139C268.93 297.139 268.766 297.176 268.617 297.246L262.521 300.566C262.269 300.709 262.281 300.948 262.521 301.103L269.563 304.948ZM315.311 277.127C315.461 277.201 315.628 277.239 315.797 277.239C315.966 277.239 316.132 277.201 316.282 277.127L322.365 273.796C322.63 273.665 322.618 273.426 322.365 273.271L320.548 272.232C320.397 272.161 320.231 272.125 320.062 272.125C319.894 272.125 319.727 272.161 319.576 272.232L313.493 275.551C313.228 275.695 313.241 275.933 313.493 276.089L315.311 277.127ZM342.002 262.549C342.152 262.622 342.319 262.66 342.488 262.66C342.657 262.66 342.823 262.622 342.974 262.549L349.069 259.217C349.322 259.074 349.309 258.835 349.069 258.692L347.201 257.665C347.05 257.595 346.884 257.558 346.716 257.558C346.547 257.558 346.381 257.595 346.23 257.665L340.134 260.996C339.882 261.14 339.894 261.379 340.134 261.522L342.002 262.549ZM356.793 270.632C356.944 270.703 357.11 270.739 357.278 270.739C357.447 270.739 357.613 270.703 357.764 270.632L363.86 267.313C364.112 267.169 364.1 266.931 363.86 266.775L356.818 262.931C356.667 262.86 356.501 262.823 356.332 262.823C356.163 262.823 355.997 262.86 355.846 262.931L349.801 266.262C349.536 266.405 349.549 266.644 349.801 266.799L356.793 270.632ZM379.042 291.993L385.125 288.661C385.39 288.518 385.377 288.291 385.125 288.136L378.083 284.291C377.932 284.218 377.766 284.18 377.597 284.18C377.428 284.18 377.261 284.218 377.111 284.291L371.028 287.551C370.776 287.694 370.788 287.921 371.028 288.076L378.07 291.921C378.227 292.011 378.407 292.06 378.59 292.064C378.774 292.068 378.956 292.027 379.117 291.945L379.042 291.993ZM324.334 272.232C324.484 272.305 324.651 272.344 324.82 272.344C324.989 272.344 325.155 272.305 325.306 272.232L331.389 268.901C331.654 268.769 331.641 268.531 331.389 268.375L329.508 267.349C329.357 267.278 329.191 267.241 329.022 267.241C328.854 267.241 328.688 267.278 328.536 267.349L322.454 270.668C322.189 270.811 322.214 271.05 322.454 271.205L324.334 272.232ZM251.832 314.619C251.982 314.692 252.149 314.731 252.318 314.731C252.487 314.731 252.654 314.692 252.804 314.619L258.899 311.288C259.152 311.144 259.139 310.906 258.899 310.762L251.857 306.918C251.707 306.844 251.54 306.806 251.371 306.806C251.202 306.806 251.036 306.844 250.886 306.918L244.828 310.249C244.563 310.38 244.588 310.619 244.828 310.774L251.832 314.619Z" fill="#455A64"/>
<path d="M291.295 365.161L351.378 332.338C352.395 331.849 353.519 331.594 354.66 331.594C355.8 331.594 356.924 331.849 357.941 332.338L392.393 351.155C394.211 352.146 394.211 353.746 392.393 354.737L332.31 387.56C331.293 388.049 330.169 388.304 329.028 388.304C327.888 388.304 326.764 388.049 325.747 387.56L291.295 368.743C289.49 367.752 289.49 366.14 291.295 365.161Z" fill="#263238"/>
<path d="M401.795 207.326H401.72L391.46 201.738C390.867 201.488 389.996 201.738 388.936 202.479C379.395 209.38 366.56 211.529 356.124 208.377C355.449 207.781 354.809 207.151 354.205 206.49L354.016 206.287C353.715 205.957 353.357 205.679 352.956 205.464L352.779 205.368L342.507 199.792C341.333 199.267 340.273 199.792 339.566 201.44C329.647 224.759 308.508 248.388 294.412 254.298C293.346 254.751 292.398 255.419 291.635 256.256C290.622 257.297 290.063 258.662 290.071 260.077L292.102 312.434C292.102 327.562 298.854 343.538 312.623 351.311L323.249 357.113L323.438 357.209C329.183 360.261 335.679 361.822 342.267 361.734C343.743 361.734 345.245 361.675 346.798 361.531C349.817 361.062 352.615 359.738 354.824 357.734C385.629 327.634 400.609 286.894 400.609 264.352L402.578 209.523C402.654 208.341 402.351 207.613 401.795 207.326Z" fill="#3391DB"/>
<path d="M402.578 209.523L400.546 264.292C400.546 286.835 385.566 327.574 354.761 357.675C352.552 359.678 349.754 361.002 346.735 361.472C345.182 361.615 343.68 361.675 342.204 361.675C335.616 361.763 329.12 360.201 323.375 357.149L323.186 357.054L322.82 356.839C309.051 349.066 302.299 333.09 302.299 317.962L300.356 265.605C300.349 264.19 300.908 262.825 301.921 261.784C302.684 260.947 303.631 260.279 304.697 259.826C318.794 253.856 339.932 230.287 349.852 206.968C350.558 205.32 351.631 204.783 352.805 205.308L352.981 205.404C353.382 205.619 353.741 205.898 354.042 206.228L354.231 206.431C364.756 218.024 385.453 218.012 399.272 208.007C400.319 207.255 401.19 207.016 401.796 207.266H401.871C402.351 207.613 402.654 208.341 402.578 209.523Z" fill="#3391DB"/>
<path opacity="0.4" d="M401.732 207.255C401.139 207.004 400.268 207.255 399.208 207.995C386.197 217.415 367.078 217.977 356.111 208.305C366.598 211.469 379.408 209.32 388.923 202.407C389.971 201.655 390.841 201.416 391.447 201.667L401.732 207.255Z" fill="white"/>
<path opacity="0.4" d="M352.742 205.296C351.568 204.771 350.495 205.296 349.789 206.956C339.869 230.275 318.731 253.904 304.634 259.814C303.568 260.267 302.62 260.935 301.858 261.773C301.593 262.058 301.356 262.366 301.151 262.692L290.904 257.092C291.108 256.772 291.34 256.468 291.598 256.185C291.739 256.029 291.891 255.881 292.052 255.743L292.229 255.576L292.405 255.42C292.988 254.929 293.648 254.527 294.361 254.226C308.458 248.316 329.596 224.687 339.516 201.368C340.223 199.72 341.283 199.195 342.456 199.72L352.742 205.296Z" fill="white"/>
<path d="M292.065 255.719C292.117 255.661 292.177 255.609 292.241 255.564L292.065 255.731C292.065 255.731 292.052 255.719 292.065 255.719Z" fill="#3391DB"/>
<path opacity="0.15" d="M292.241 255.516L292.065 255.683C292.117 255.621 292.176 255.565 292.241 255.516Z" fill="black"/>
<path opacity="0.15" d="M323.4 357.137L323.211 357.054L312.585 351.239C298.816 343.466 292.065 327.49 292.065 312.362L290.033 260.005C290.011 258.974 290.314 257.96 290.904 257.092L301.151 262.692C300.57 263.558 300.272 264.568 300.293 265.593L302.325 317.95C302.325 333.078 309.076 348.994 322.845 356.827L323.211 357.042L323.4 357.137Z" fill="black"/>
<path d="M359.67 308.971L343.264 317.926L345.788 289.855C343.832 288.876 342.57 286.464 342.57 282.99C342.57 276.817 346.545 269.629 351.404 266.955C356.263 264.28 360.238 267.122 360.238 273.295C360.14 276.958 359.035 280.534 357.032 283.671L359.67 308.971Z" fill="#455A64"/>
<path d="M359.645 308.971L344.791 300.852L343.251 317.926L359.645 308.971Z" fill="#37474F"/>
<path d="M351.454 266.955C348.236 268.71 345.447 272.387 343.882 276.447L357.146 283.671C359.149 280.534 360.253 276.958 360.351 273.295C360.314 267.122 356.351 264.28 351.454 266.955Z" fill="#37474F"/>
<path d="M146.291 472.036V476.693C146.291 482.185 150.077 487.665 157.75 491.856C169.285 498.149 186.221 499.689 200.418 496.477L213.593 503.641L223.689 501.468L230.593 505.253L230.971 513.145L234.757 515.187L244.109 515.963L250.822 519.545V523.999L259.265 528.596H280.719L288.405 524.405V519.701L219.828 486.949C222.737 484.254 224.436 480.602 224.573 476.752V471.976C223.538 467.415 219.525 465.063 213.127 461.565C197.844 453.207 173.083 453.207 157.8 461.565C150.885 465.385 146.985 467.129 146.291 472.036ZM167.291 466.579C169.72 465.414 172.404 464.807 175.128 464.807C177.851 464.807 180.536 465.414 182.965 466.579C187.293 468.967 187.293 472.776 182.965 475.14C180.536 476.306 177.851 476.913 175.128 476.913C172.404 476.913 169.72 476.306 167.291 475.14C162.962 472.824 162.962 468.944 167.291 466.579Z" fill="#3391DB"/>
<path opacity="0.1" d="M146.291 472.036V476.693C146.291 482.185 150.077 487.665 157.75 491.856C169.285 498.149 186.221 499.689 200.418 496.477L213.593 503.641L223.689 501.468L230.593 505.253L230.971 513.145L234.757 515.187L244.109 515.963L250.822 519.545V523.999L259.265 528.596H280.719L288.405 524.405V519.701L219.828 486.949C222.737 484.254 224.436 480.602 224.573 476.752V471.976C223.538 467.415 219.525 465.063 213.127 461.565C197.844 453.207 173.083 453.207 157.8 461.565C150.885 465.385 146.985 467.129 146.291 472.036ZM167.291 466.579C169.72 465.414 172.404 464.807 175.128 464.807C177.851 464.807 180.536 465.414 182.965 466.579C187.293 468.967 187.293 472.776 182.965 475.14C180.536 476.306 177.851 476.913 175.128 476.913C172.404 476.913 169.72 476.306 167.291 475.14C162.962 472.824 162.962 468.944 167.291 466.579Z" fill="black"/>
<path d="M157.75 487.152C169.285 493.456 186.221 494.997 200.418 491.773L213.593 498.937L223.689 496.776L230.593 500.549L230.971 508.453L234.757 510.483L244.109 511.259L251.403 515.104L250.822 519.259L259.265 523.868H280.719L288.405 519.677L219.828 482.209C227.904 474.102 225.683 463.75 213.126 456.896C197.844 448.538 173.083 448.538 157.8 456.896C142.518 465.254 142.467 478.794 157.75 487.152ZM167.291 461.875C169.719 460.71 172.404 460.102 175.128 460.102C177.851 460.102 180.536 460.71 182.965 461.875C187.293 464.263 187.293 468.072 182.965 470.436C180.536 471.601 177.851 472.209 175.128 472.209C172.404 472.209 169.719 471.601 167.291 470.436C162.962 468.048 162.962 464.227 167.291 461.863V461.875Z" fill="#3391DB"/>
<path opacity="0.3" d="M185.413 489.301C175.708 489.301 166.66 487.271 159.921 483.594C154.014 480.37 150.62 476.155 150.62 472.036C150.62 467.917 154.014 463.678 159.921 460.466C166.66 456.789 175.708 454.759 185.413 454.759C195.118 454.759 204.166 456.789 210.905 460.466C216.812 463.702 220.206 467.905 220.206 472.036C220.206 476.167 216.812 480.394 210.905 483.594C204.166 487.271 195.118 489.301 185.413 489.301ZM185.413 456.407C176.011 456.407 167.265 458.353 160.779 461.887C155.428 464.812 152.361 468.514 152.361 472.036C152.361 475.558 155.428 479.2 160.779 482.173C167.265 485.755 176.011 487.665 185.413 487.665C194.815 487.665 203.561 485.707 210.047 482.173C215.398 479.248 218.465 475.546 218.465 472.036C218.465 468.526 215.398 464.872 210.047 461.887C203.561 458.353 194.815 456.407 185.413 456.407Z" fill="black"/>
<path opacity="0.1" d="M171.329 491.928V496.704C180.921 498.677 190.856 498.612 200.418 496.513V491.809C190.85 493.878 180.916 493.919 171.329 491.928Z" fill="black"/>
<path opacity="0.1" d="M213.594 498.961V503.677L223.715 501.504V496.8L213.594 498.961Z" fill="black"/>
<path opacity="0.1" d="M230.618 500.573V505.289L230.997 513.181V508.477L230.618 500.573Z" fill="black"/>
<path opacity="0.1" d="M234.719 510.507V515.223L244.071 515.999V511.283L234.719 510.507Z" fill="black"/>
<path opacity="0.1" d="M280.669 523.891H259.227V528.608H280.669V523.891Z" fill="black"/>
<path opacity="0.15" d="M288.354 519.689V524.405L280.669 528.596V523.891L284.026 522.053V524.082L285.893 523.068V521.014L288.354 519.689Z" fill="black"/>
<path d="M285.893 521.014L284.026 522.053V524.082L285.893 523.068V521.014Z" fill="#3391DB"/>
<path opacity="0.15" d="M285.894 521.014V523.068L215.562 484.645L217.417 483.618L285.894 521.014Z" fill="black"/>
<path opacity="0.15" d="M217.417 483.618V485.671L215.562 484.645L217.417 483.618Z" fill="black"/>
<path d="M523.137 344.541C524.033 313.497 521.395 305.986 512.637 300.291L509.255 318.308C509.255 318.308 513.243 339.55 512.814 346.618C512.435 352.839 511.792 360.612 510.29 365.627C510.003 366.516 509.384 367.276 508.548 367.764C506.731 368.979 505.111 370.439 503.74 372.098C502.478 373.4 501.317 373.722 501.481 374.14C501.737 374.595 502.165 374.942 502.68 375.112C503.194 375.283 503.757 375.264 504.258 375.059C505.378 374.646 506.438 374.101 507.413 373.435C506.646 375.345 505.555 377.124 504.182 378.701C501.052 382.283 500.913 384.552 507.223 384.611C511.186 384.611 514.341 382.331 517.319 374.092C518.477 371.074 519.405 367.982 520.096 364.839C521.547 356.684 522.998 349.544 523.137 344.541Z" fill="#B16668"/>
<path d="M505.28 297.927C507.969 297.476 510.741 297.864 513.178 299.031C515.615 300.197 517.586 302.081 518.796 304.398C522.468 310.595 523.364 321.27 523.844 331.86C523.844 331.86 516.562 337.627 507.829 334.798L505.28 297.927Z" fill="#3391DB"/>
<path opacity="0.7" d="M505.28 297.927C507.969 297.476 510.741 297.864 513.178 299.031C515.615 300.197 517.586 302.081 518.796 304.398C522.468 310.595 523.364 321.27 523.844 331.86C523.844 331.86 516.562 337.627 507.829 334.798L505.28 297.927Z" fill="black"/>
<path d="M517.571 468.979C518.228 469.218 518.392 470.412 518.493 472.788C518.568 474.579 518.985 477.719 516.751 478.352C514.517 478.985 511.261 478.651 509.835 476.955C508.11 474.684 506.265 472.496 504.308 470.4C502.112 468.167 499.727 466.066 498.831 462.926C498.036 460.096 498.705 458.866 500.749 458.042C503.563 456.848 507.98 460.609 510.189 461.194C512.082 461.696 516.903 468.74 517.571 468.979Z" fill="#263238"/>
<path d="M517.571 466.77V469.696C516.412 470.394 515.074 470.781 513.7 470.815C512.326 470.848 510.968 470.528 509.772 469.887C509.633 469.612 508.965 465.72 508.965 465.72L517.571 466.77Z" fill="#B16668"/>
<path d="M492.584 485.791C493.127 487.359 493.581 488.953 493.947 490.567C494.325 492.334 494.868 495.343 494.224 496.608C493.581 497.874 491.019 498.793 487.069 498.77C484.545 498.77 480.532 500.393 477.806 501.838C475.08 503.283 469.123 503.916 466.132 503.581C462.624 503.187 458.989 501.265 458.421 499.892C457.854 498.519 458.598 497.086 466.889 493.743C466.965 493.743 478.399 490.161 482.399 486.018L492.584 485.791Z" fill="#263238"/>
<path d="M492.584 482.639V486.042C492.584 487.236 491.057 489.122 487.056 488.991C484.255 488.895 482.286 488.179 482.4 485.994V482.83L492.584 482.639Z" fill="#B16668"/>
<path d="M519.578 428.049C518.892 422.881 517.671 417.79 515.931 412.849C515.931 412.849 517.029 399.715 517.559 387.31C518.127 373.877 517.559 357.006 517.799 353.651C517.799 353.651 472.001 344.887 471.18 360.409C470.36 375.931 472.998 415.44 473.54 422.258C474.083 429.076 475.32 435.117 476.809 446.138C478.298 457.159 482.399 482.806 482.399 482.806C483.983 483.568 485.741 483.949 487.517 483.916C489.293 483.882 491.033 483.436 492.584 482.615C492.584 482.615 495.815 451.571 495.474 443.702C495.212 437.874 494.152 432.102 492.319 426.533C492.319 426.533 493.19 413.733 493.959 402.653C494.729 391.572 495.537 386.163 495.714 381.328L496.698 380.862C496.698 380.862 497.708 400.074 498.25 406.891C498.793 413.709 499.929 420.24 502.036 432.909C503.853 443.905 509.242 467.152 509.242 467.152C514.467 469.827 517.597 466.794 517.597 466.794C517.597 466.794 520.979 437.589 519.578 428.049Z" fill="#37474F"/>
<path d="M495.714 381.304C495.714 381.304 506.819 376.11 512.372 371.453C512.372 371.453 507.21 378.331 500.434 381.387C500.434 381.387 498.023 405.267 498.036 404.766L496.635 381.268L495.714 381.304Z" fill="#263238"/>
<path d="M485.82 293.02L488.533 307.133L502.011 306.189L499.184 290.202L485.82 293.02Z" fill="#B16668"/>
<path d="M516.234 305.163C514.909 301.33 509.76 297.151 504.611 297.999C496.967 299.247 489.437 301.047 482.084 303.383C477.377 304.971 473.073 308.828 472.682 323.502C472.682 323.502 471.105 357.698 471.079 364.313C480.918 367.965 491.633 368.965 502.036 367.203C516.196 364.277 517.912 358.713 517.912 358.713C517.912 358.713 518.089 334.117 517.66 323.502C517.281 314.476 517.155 307.801 516.234 305.163Z" fill="#3391DB"/>
<g opacity="0.15">
<path d="M516.234 305.163C514.909 301.33 509.76 297.151 504.611 297.999C496.967 299.247 489.437 301.047 482.084 303.383C477.377 304.971 473.073 308.828 472.682 323.502C472.682 323.502 471.105 357.698 471.079 364.313C480.918 367.965 491.633 368.965 502.036 367.203C516.196 364.277 517.912 358.713 517.912 358.713C517.912 358.713 518.089 334.117 517.66 323.502C517.281 314.476 517.155 307.801 516.234 305.163Z" fill="black"/>
</g>
<path d="M475.433 275.814C475.433 275.814 472.013 280.972 472.43 281.462C472.846 281.951 475.458 282.345 475.458 282.345L475.433 275.814Z" fill="#9A4A4D"/>
<path d="M484.911 261.593C477.793 263.17 475.799 266.19 475.383 276.972C474.941 288.22 476.241 291.73 477.831 293.211C478.916 294.214 484.772 294.273 487.713 293.437C491.385 292.399 499.676 289.414 503.45 283.682C507.892 276.924 508.889 267.886 503.879 264.292C496.812 259.229 487.814 260.949 484.911 261.593Z" fill="#B16668"/>
<path d="M475.459 264.399C477.093 266.653 479.399 268.394 482.084 269.402C483.447 270.871 482.702 276.566 485.1 277.521C485.1 277.521 486.135 273.342 489.845 273.796C493.556 274.25 494.199 278.715 491.915 281.497C489.631 284.279 487.422 283.276 487.422 283.276C487.422 283.276 487.675 289.246 490.539 292.518C490.539 292.518 493.72 293.425 499.525 292.124C503.084 291.324 508.043 286.99 510.063 282.465C514.341 272.913 514.442 264.352 507.993 261.928C507.198 257.57 503.513 255.695 499.348 254.883C490.375 253.128 484.595 258.465 477.692 257.964C473.742 257.701 473.01 260.423 475.459 264.399Z" fill="#263238"/>
<path d="M508.132 263.384L512.359 260.913C512.224 260.588 512.014 260.296 511.746 260.056C511.478 259.817 511.157 259.635 510.807 259.526C510.457 259.416 510.085 259.38 509.719 259.42C509.352 259.461 509 259.577 508.686 259.761C508.372 259.944 508.105 260.191 507.902 260.483C507.7 260.774 507.568 261.105 507.515 261.45C507.462 261.796 507.49 262.148 507.596 262.482C507.703 262.816 507.886 263.124 508.132 263.384Z" fill="#263238"/>
<path d="M425.092 328.792C427.301 329.723 453.411 347.967 457.475 345.842C461.539 343.717 482.425 320.637 482.425 320.637C484.189 318.058 485.128 315.052 485.128 311.98C485.128 308.908 484.189 305.902 482.425 303.324C482.425 303.324 475.736 304.518 472.228 309.509C468.719 314.5 453.601 332.469 453.601 332.469C449.865 330.702 446.138 328.911 442.419 327.096C439.365 325.592 436.299 324.099 433.308 322.487C432.467 322.119 431.675 321.658 430.948 321.114C429.471 319.729 429.686 316.338 429.762 314.571C429.762 313.723 429.762 312.876 429.888 312.028C430.014 310.989 430.228 308.446 428.247 309.258C427.872 309.427 427.547 309.681 427.301 309.998C426.996 310.387 426.758 310.818 426.594 311.276C426.228 312.374 426.342 313.58 426.001 314.691C425.96 314.854 425.877 315.006 425.761 315.132C425.585 315.262 425.365 315.326 425.143 315.311C422.265 315.228 419.539 311.407 418.214 309.341C417.756 308.357 416.995 307.525 416.031 306.953C414.466 306.249 412.573 307.252 411.551 308.589C410.32 310.347 409.816 312.473 410.137 314.559C410.404 317.415 411.748 320.086 413.923 322.081C417.211 324.909 420.99 327.178 425.092 328.792Z" fill="#B16668"/>
<path d="M484.608 302.583C481.731 302.894 476.948 303.097 472.253 308.124C466.726 314.022 459.52 323.574 459.52 323.574C460.256 326.399 461.838 328.963 464.077 330.958C466.315 332.953 469.115 334.295 472.14 334.821C472.14 334.821 482.021 325.269 484.76 319.968C487.498 314.667 487.952 306.142 484.608 302.583Z" fill="#3391DB"/>
<path opacity="0.7" d="M484.608 302.583C481.731 302.894 476.948 303.097 472.253 308.124C466.726 314.022 459.52 323.574 459.52 323.574C460.256 326.399 461.838 328.963 464.077 330.958C466.315 332.953 469.115 334.295 472.14 334.821C472.14 334.821 482.021 325.269 484.76 319.968C487.498 314.667 487.952 306.142 484.608 302.583Z" fill="black"/>
</svg>
